<?xml version="1.0" standalone="no"?>
<!DOCTYPE svg PUBLIC "-//W3C//DTD SVG 20010904//EN"
 "http://www.w3.org/TR/2001/REC-SVG-20010904/DTD/svg10.dtd">
<svg version="1.0" xmlns="http://www.w3.org/2000/svg"
 width="512.000000pt" height="512.000000pt" viewBox="0 0 512.000000 512.000000"
 preserveAspectRatio="xMidYMid meet">
<metadata>
Created by potrace 1.14, written by Peter Selinger 2001-2017
</metadata>
<g transform="translate(0.000000,512.000000) scale(0.100000,-0.100000)"
fill="#000000" stroke="none">
<path d="M2535 5076 c-11 -7 -180 -110 -375 -228 -195 -118 -398 -241 -450
-273 -52 -32 -108 -66 -125 -75 -16 -10 -133 -81 -260 -157 -460 -280 -791
-480 -815 -494 -14 -8 -27 -17 -30 -20 -3 -3 -13 -8 -23 -12 -10 -4 -15 -11
-12 -17 3 -5 2 -10 -2 -10 -5 0 -8 -556 -8 -1236 l0 -1236 165 -101 c192 -117
204 -124 262 -158 52 -31 531 -322 978 -594 179 -108 339 -205 355 -215 17 -9
106 -63 198 -119 l168 -102 432 262 c238 144 448 271 467 284 111 69 202 125
205 125 2 0 92 54 200 120 108 66 200 120 206 120 5 0 9 5 9 10 0 6 4 10 9 10
8 0 234 135 486 291 l111 68 -1 1228 c0 714 -4 1234 -9 1242 -7 10 -5 12 5 6
10 -6 11 -5 4 3 -9 10 -162 103 -745 457 -102 61 -313 190 -470 285 -157 95
-298 181 -315 190 -16 10 -154 93 -305 185 -151 92 -280 169 -285 171 -6 3
-19 -2 -30 -10z"/>
</g>
</svg>
