<svg
  width="635.4"
  height="485"
  xmlns="http://www.w3.org/2000/svg"
  xmlns:svg="http://www.w3.org/2000/svg"
  xmlns:se="http://svg-edit.googlecode.com"
  xmlns:xlink="http://www.w3.org/1999/xlink"
  data-name="Layer 1"
>
  <defs>
    <linearGradient id="a" x1="0" x2="1.000032" y1="0.5" y2="0.5">
      <stop offset="0" stop-color="#68e1fd" />
      <stop offset="1" stop-color="#69b9eb" />
    </linearGradient>
    <linearGradient id="d" x1="-0.144924" x2="1.376719" y1="0.254198" y2="0.834178">
      <stop offset="0" stop-color="#fff" stop-opacity="0" />
      <stop offset="1" stop-color="#fff" />
    </linearGradient>
    <linearGradient id="e" x1="-0.085886" x2="1.702621" y1="0.791278" y2="-0.062616">
      <stop offset="0.02" stop-opacity="0" />
      <stop offset="0.99" stop-color="#3f3d56" />
    </linearGradient>
    <linearGradient id="f" x1="0.512003" x2="-1.693965" y1="0.4954" y2="1.327799">
      <stop offset="0" stop-color="#68e1fd" />
      <stop offset="0.01" stop-color="#67ddf9" />
      <stop offset="0.12" stop-color="#5cb3ce" />
      <stop offset="0.24" stop-color="#538ea9" />
      <stop offset="0.37" stop-color="#4c718b" />
      <stop offset="0.5" stop-color="#465a73" />
      <stop offset="0.63" stop-color="#424a63" />
      <stop offset="0.79" stop-color="#404059" />
      <stop offset="0.99" stop-color="#3f3d56" />
    </linearGradient>
    <linearGradient id="g" x1="433.19" x2="451.34" xlink:href="#a" y1="169.79" y2="169.79" />
    <linearGradient id="b" x1="-0.56353" x2="7.899341" y1="0.49903" y2="0.505431">
      <stop offset="0" stop-opacity="0" />
      <stop offset="0.02" stop-color="#030304" stop-opacity="0.04" />
      <stop offset="0.18" stop-color="#181821" stop-opacity="0.39" />
      <stop offset="0.35" stop-color="#292839" stop-opacity="0.66" />
      <stop offset="0.53" stop-color="#363449" stop-opacity="0.85" />
      <stop offset="0.73" stop-color="#3d3b53" stop-opacity="0.96" />
      <stop offset="0.99" stop-color="#3f3d56" />
    </linearGradient>
    <linearGradient id="h" x1="447.14" x2="415.92" xlink:href="#a" y1="169.19" y2="170.22" />
    <linearGradient id="i" x1="332.98" x2="366.51" xlink:href="#b" y1="248.71" y2="159.01" />
    <linearGradient id="j" x1="383.62" x2="358.16" xlink:href="#b" y1="240.51" y2="151.74" />
    <linearGradient id="k" x1="371.63" x2="244.49" xlink:href="#b" y1="170.23" y2="351.29" />
    <linearGradient id="l" x1="385.52" x2="258.38" xlink:href="#b" y1="179.98" y2="361.05" />
  </defs>
  <g class="layer">
    <path
      id="svg_3"
      d="m633.900002,66.46l0,277.88a30.78,30.78 0 0 1 -30.79,30.79l-572.32,0a30.79,30.79 0 0 1 -30.79,-30.79l0,-277.88a30.83,30.83 0 0 1 30.79,-30.79l572.34,0a30.83,30.83 0 0 1 30.77,30.79z"
      fill="url(#a)"
      opacity="0.22"
    />
    <path
      id="svg_4"
      d="m635.4,65.43l0,277.87a30.8,30.8 0 0 1 -24.33,30.12a31.16,31.16 0 0 1 -6.45,0.67l-572.34,0a30.78,30.78 0 0 1 -30.8,-30.79l0,-277.87a30.83,30.83 0 0 1 30.8,-30.8l572.34,0a30.78,30.78 0 0 1 30.52,26.83a28.88,28.88 0 0 1 0.26,3.97z"
      fill="#68e1fd"
    />
    <path
      id="svg_5"
      d="m635.400002,65.43l0,277.87a30.8,30.8 0 0 1 -24.33,30.12a31.16,31.16 0 0 1 -6.45,0.67l-572.34,0a30.78,30.78 0 0 1 -30.8,-30.79l0,-277.87a30.83,30.83 0 0 1 30.8,-30.8l572.34,0a30.78,30.78 0 0 1 30.52,26.83a28.88,28.88 0 0 1 0.26,3.97z"
      fill="url(#d)"
    />
    <path
      id="svg_6"
      d="m728.76,62.5l-633.4,0a30.79,30.79 0 0 1 30.53,-26.83l572.34,0a30.78,30.78 0 0 1 30.53,26.83z"
      fill="url(#e)"
      transform="translate(-95.1)"
    />
    <rect
      id="svg_7"
      fill="#fff"
      height="28.87"
      rx="7.92"
      stroke="#68e1fd"
      stroke-miterlimit="10"
      stroke-width="0.88"
      width="230.1"
      x="191.52"
      y="279.01"
    />
    <circle id="svg_8" cx="210.28" cy="293.83" fill="#68e1fd" r="6.29" />
    <circle id="svg_9" cx="229.85" cy="293.83" fill="#68e1fd" r="6.29" />
    <circle id="svg_10" cx="249.43" cy="293.83" fill="#68e1fd" r="6.29" />
    <circle id="svg_11" cx="269" cy="293.83" fill="#68e1fd" r="6.29" />
    <path
      id="svg_12"
      d="m437.15,292.11l0,-3.32l2.62,0l0,-2.14l-2.62,0l0,-1.6l2.62,0l0,-2.14l-5.25,0l0,9.2a6.57,6.57 0 1 0 2.63,0zm-1.31,11a4.57,4.57 0 1 1 4.56,-4.57a4.58,4.58 0 0 1 -4.56,4.58l0,-0.01z"
      fill="#68e1fd"
    />
    <rect
      id="svg_13"
      fill="url(#f)"
      height="89.14"
      rx="11.76"
      width="89.14"
      x="268.26"
      y="125.83"
    />
    <rect
      id="svg_14"
      fill="#68e1fd"
      height="89.14"
      rx="11.39"
      width="83.67"
      x="273.72"
      y="125.83"
    />
    <path
      id="svg_15"
      d="m360.84,170.69l-4.6,4.37l-2,1.88a15.51,15.51 0 0 0 -13,-5.51a5.7,5.7 0 0 1 -3.13,-0.51c-3.31,-1.88 1.88,-8.29 1.88,-8.29a26.07,26.07 0 0 1 3.42,0.15a1.53,1.53 0 0 1 0.3,0l0.91,0.11c4.34,0.62 11.41,2.69 16.22,7.8z"
      fill="#fff"
    />
    <path
      id="svg_16"
      d="m356.060002,174.65l0.18,0.41l-2,1.88a15.51,15.51 0 0 0 -13,-5.51a5.7,5.7 0 0 1 -3.13,-0.51l1.88,-8.29s1.85,0 3.42,0.15a1.53,1.53 0 0 1 0.3,0a7.56,7.56 0 0 1 0.91,0.11s1.09,4.66 0.28,6.62c0,0.03 7.67,1.31 11.16,5.14z"
      fill="url(#g)"
      opacity="0.39"
    />
    <rect
      id="svg_17"
      fill="url(#b)"
      height="51.56"
      rx="4.51"
      width="12.12"
      x="306.77"
      y="144.62"
    />
    <path
      id="svg_18"
      d="m341.22,169.7a20.49,20.49 0 0 1 -20.47,20.3l-4.41,0a3.55,3.55 0 0 1 -3.19,-2a3.55,3.55 0 0 1 3.19,-5.13l1.64,0a13.35,13.35 0 0 0 13.35,-13.64a13.53,13.53 0 0 0 -13.62,-13.07l-2,0a2.92,2.92 0 0 1 -2.92,-2.92l0,-1.24a2.92,2.92 0 0 1 2.92,-2.92l4.69,0c11.33,-0.01 20.9,9.27 20.82,20.62z"
      fill="#fff"
    />
    <path
      id="svg_19"
      d="m335.760002,170.52a17.81,17.81 0 0 1 -17.79,17.66l-3.84,0a3.19,3.19 0 0 1 -1,-0.16a3.55,3.55 0 0 1 3.19,-5.13l1.64,0a13.35,13.35 0 0 0 13.35,-13.64a13.53,13.53 0 0 0 -13.62,-13.07l-2,0a2.92,2.92 0 0 1 -2.92,-2.92l0,-0.55a2.63,2.63 0 0 1 0.8,-0.13l4.07,0a18.08,18.08 0 0 1 18.12,17.94z"
      fill="url(#h)"
      opacity="0.39"
    />
    <path
      id="svg_20"
      d="m330.69,165.47s1.34,3.59 -0.33,9.07c0,0 -6.33,6.51 -0.93,16.86l4.46,4.77l-5.19,5.11a23,23 0 0 1 -8.67,-21.54c1.15,-8.82 10.66,-14.27 10.66,-14.27z"
      fill="#fff"
    />
    <path
      id="svg_21"
      d="m324.27,205.4l41.1,-39l34.48,29.77l-42.46,40.73l-33.12,-31.5zm0,0l2.73,15.46l30.39,29.16l0,-13.12l-33.12,-31.5z"
      fill="#68e1fd"
    />
    <path
      id="svg_22"
      d="m399.85,196.17l0,14.19l-42.46,39.66l0,-13.12l42.46,-40.73z"
      fill="#68e1fd"
    />
    <path
      id="svg_23"
      d="m324.27,205.4l2.73,15.46l30.39,29.16l0,-13.12l-33.12,-31.5z"
      fill="url(#i)"
    />
    <path
      id="svg_24"
      d="m399.85,196.17l0,14.19l-42.46,39.66l0,-13.12l42.46,-40.73z"
      fill="url(#j)"
    />
    <path
      id="svg_25"
      d="m331.85,212.61l41.49,-39.33l3.83,3.31l-41.41,39.74l-3.91,-3.72z"
      fill="url(#k)"
    />
    <path
      id="svg_26"
      d="m344.1,224l42.48,-39.33l3.83,3.3l-42.4,39.74l-3.91,-3.71z"
      fill="url(#l)"
    />
    <path
      id="svg_28"
      d="m611.37,439.22c-5.93,68.33 -193.92,46.44 -329.11,18.74s-246.73,27.7 -272.45,-18.74c-11.39,-20.56 -3.78,-46.24 8.25,-68.48a30.59,30.59 0 0 0 15,3.87l567.24,0c7.81,18.39 13.18,40.39 11.07,64.61z"
      fill="#68e1fd"
      opacity="0.18"
    />
    <path
      id="svg_43"
      d="m120.13,36.19s128.36,-81.43 292.74,0l-292.74,0z"
      fill="#68e1fd"
      opacity="0.18"
    />
  </g>
</svg>
